<svg width="32" height="35" viewBox="0 0 32 35" fill="none" xmlns="http://www.w3.org/2000/svg"><path d="M11.6667 5.69358C11.6667 3.61545 13.4288 1.60137e-07 15.5556 1.85498e-07C17.7431 2.11584e-07 19.4444 3.61545 19.4444 5.69358L19.4444 12.7786L30.1328 18.8854C30.7405 19.2318 31.1111 19.8759 31.1111 20.5747L31.1111 23.9896C31.1111 24.6337 30.4913 25.1016 29.8715 24.9253L19.4444 21.9479L19.4444 28.1944L22.9444 30.8194C23.1875 31.0017 23.3333 31.2934 23.3333 31.5972L23.3333 34.1493C23.3333 34.6233 22.9505 35 22.4826 35C22.4036 35 22.3247 34.9878 22.2457 34.9696L15.5556 33.0556L8.86545 34.9696C8.78646 34.9939 8.70747 35 8.62847 35C8.15451 35 7.77778 34.6172 7.77778 34.1493L7.77778 31.5972C7.77778 31.2934 7.92361 31.0017 8.16667 30.8194L11.6667 28.1944L11.6667 21.9418L1.23958 24.9193C0.619792 25.1016 1.23617e-07 24.6337 1.31298e-07 23.9896L1.72021e-07 20.5747C1.80354e-07 19.8759 0.376736 19.2318 0.978299 18.8854L11.6667 12.7786L11.6667 5.69358Z" fill="white"/></svg>
